<svg xmlns="http://www.w3.org/2000/svg" viewBox="0 0 540 100" width="100%" height="100%" fill="none">
  <defs>
    <linearGradient id="devropix-d-dark" x1="0%" y1="30%" x2="85%" y2="70%">
      <stop offset="0%" stop-color="#60A5FA" />
      <stop offset="25%" stop-color="#818CF8" />
      <stop offset="55%" stop-color="#A78BFA" />
      <stop offset="85%" stop-color="#E0E7FF" />
      <stop offset="100%" stop-color="#FFFFFF" />
    </linearGradient>

    <linearGradient id="devropix-x-dark" x1="0%" y1="100%" x2="100%" y2="0%">
      <stop offset="0%" stop-color="#60A5FA" />
      <stop offset="30%" stop-color="#818CF8" />
      <stop offset="65%" stop-color="#A78BFA" />
      <stop offset="100%" stop-color="#C084FC" />
    </linearGradient>
  </defs>

  <path
    d="M 4 18 L 74 18 C 102 18 120 34 120 55 C 120 76 102 92 74 92 L 24 92 L 24 82 L 44 62 L 44 72 L 72 72 C 86 72 96 65 96 55 C 96 45 86 38 72 38 L 44 38 L 44 50 L 24 70 L 24 38 L 4 18 Z"
    fill="url(#devropix-d-dark)"
  />

  <text
    x="130"
    y="91"
    font-family="'Plus Jakarta Sans', system-ui, -apple-system, sans-serif"
    font-size="74"
    font-weight="800"
    letter-spacing="-0.025em"
    fill="#FFFFFF"
  >evropi</text>

  <polygon
    points="444,40 461,40 500,92 483,92"
    fill="#FFFFFF"
  />
  <polygon
    points="444,92 461,92 500,40 483,40"
    fill="url(#devropix-x-dark)"
  />
</svg>
